<?xml version="1.0" encoding="utf-8"?>
<!-- Generator: Adobe Illustrator 16.0.0, SVG Export Plug-In . SVG Version: 6.00 Build 0)  -->
<!DOCTYPE svg PUBLIC "-//W3C//DTD SVG 1.1//EN" "http://www.w3.org/Graphics/SVG/1.1/DTD/svg11.dtd">
<svg version="1.1" id="Layer_1" xmlns="http://www.w3.org/2000/svg" xmlns:xlink="http://www.w3.org/1999/xlink" x="0px" y="0px"
	 width="177px" height="242px" viewBox="0 0 177 242" enable-background="new 0 0 177 242" xml:space="preserve">
<g>
	<path fill="#81CBEB" d="M-699.14,544.845c2.146-2.216,4.863-3.327,8.156-3.327c3.29,0,5.936,1.004,7.941,3.006v61.597
		c0,17.028,4.292,25.541,12.877,25.541c7.726,0,14.058-4.078,18.994-12.234c4.936-8.155,7.404-21.891,7.404-41.207V554.61
		c0-4.292,1.073-7.546,3.219-9.767c2.146-2.216,4.863-3.327,8.156-3.327c3.29,0,5.936,1.005,7.941,3.007V653.55
		c1.717-0.145,4.433-0.215,8.156-0.215c3.719,0,5.58,1.573,5.58,4.723l-1.288,3.22c-5.439,0-9.588,0.069-12.448,0.215v10.729
		c0,14.735-3.327,26.361-9.98,34.877c-6.653,8.511-15.56,12.771-26.72,12.771c-6.583,0-12.415-1.969-17.492-5.902
		c-5.081-3.938-7.619-10.124-7.619-18.563c0-10.875,3.863-19.531,11.589-25.97c7.727-6.438,18.028-10.945,30.906-13.521v-33.481
		c-6.009,11.16-15.667,16.741-28.974,16.741c-9.158,0-16.385-2.932-21.677-8.801c-5.295-5.865-7.941-14.305-7.941-25.324V554.61
		C-702.359,550.318-701.286,547.064-699.14,544.845z M-675.317,696.046c0,5.007,1.358,8.833,4.078,11.482
		c2.716,2.646,6.009,3.97,9.873,3.97c3.864,0,7.009-1.146,9.443-3.434c5.436-4.865,8.156-19.53,8.156-43.997
		C-664.801,668.789-675.317,679.446-675.317,696.046z"/>
	<path fill="#81CBEB" d="M-555.559,547.742c1.858-4.148,4.83-6.226,8.907-6.226c4.078,0,7.116,1.005,9.121,3.007v61.596
		c0,8.156,1.288,14.31,3.863,18.458c2.576,4.151,6.08,6.224,10.517,6.224c13.447,0,20.175-13.95,20.175-41.852
		c0.141-0.857,1.214-1.287,3.219-1.287c2.576,0,3.863,3.793,3.863,11.375c0,12.163-2.612,21.891-7.833,29.188
		c-5.225,7.298-12.556,10.946-21.999,10.946c-14.453,0-24.038-6.365-28.759-19.102c-2.721,5.868-6.439,10.516-11.161,13.95
		c-4.722,3.434-10.087,5.15-16.097,5.15c-25.04,0-37.559-16.383-37.559-49.147c0-16.598,3.896-28.83,11.697-36.701
		c7.797-7.867,18.136-11.806,31.013-11.806C-566.719,541.518-559.709,543.594-555.559,547.742z M-595.907,616.422
		c2.002,6.297,4.292,10.269,6.868,11.911c2.575,1.646,6.009,2.468,10.302,2.468c4.293,0,8.978-2.683,14.058-8.049
		c5.077-5.365,7.619-12.34,7.619-20.925v-29.403c0-6.724-1.754-12.16-5.258-16.311c-3.508-4.148-7.441-6.226-11.805-6.226
		c-4.366,0-7.833,0.431-10.409,1.287c-2.575,0.859-5.01,2.65-7.297,5.366c-4.722,5.151-7.083,16.312-7.083,33.481
		C-598.912,601.327-597.913,610.127-595.907,616.422z"/>
	<path fill="#81CBEB" d="M-512.206,544.845c2.146-2.216,4.862-3.327,8.155-3.327c3.29,0,5.936,1.004,7.941,3.006v61.597
		c0,17.028,4.292,25.541,12.877,25.541c7.727,0,14.058-4.078,18.994-12.234c4.937-8.155,7.404-21.891,7.404-41.207V554.61
		c0-4.292,1.073-7.546,3.22-9.767c2.146-2.216,4.862-3.327,8.155-3.327c3.29,0,5.936,1.005,7.94,3.007V653.55
		c1.718-0.145,4.434-0.215,8.156-0.215c3.719,0,5.58,1.573,5.58,4.723l-1.288,3.22c-5.439,0-9.587,0.069-12.448,0.215v10.729
		c0,14.735-3.326,26.361-9.979,34.877c-6.653,8.511-15.56,12.771-26.721,12.771c-6.582,0-12.414-1.969-17.491-5.902
		c-5.081-3.938-7.619-10.124-7.619-18.563c0-10.875,3.863-19.531,11.59-25.97c7.726-6.438,18.028-10.945,30.905-13.521v-33.481
		c-6.01,11.16-15.667,16.741-28.974,16.741c-9.158,0-16.386-2.932-21.677-8.801c-5.296-5.865-7.941-14.305-7.941-25.324V554.61
		C-515.426,550.318-514.353,547.064-512.206,544.845z M-488.384,696.046c0,5.007,1.358,8.833,4.078,11.482
		c2.717,2.646,6.01,3.97,9.873,3.97c3.862,0,7.009-1.146,9.443-3.434c5.436-4.865,8.155-19.53,8.155-43.997
		C-477.867,668.789-488.384,679.446-488.384,696.046z"/>
	<path fill="#81CBEB" d="M-419.49,638.957c-2.863,0-5.258-1-7.189-3.006c-1.932-2.002-2.897-4.398-2.897-7.189
		c0-2.789,0.966-5.184,2.897-7.188c1.932-2.002,4.326-3.005,7.189-3.005c2.861,0,5.292,1.003,7.298,3.005
		c2.002,2.006,3.004,4.437,3.004,7.297c0,2.864-1.002,5.258-3.004,7.188C-414.198,637.99-416.629,638.957-419.49,638.957z"/>
</g>
<text transform="matrix(1 0 0 1 -598.0146 203.082)" fill="#000100" font-family="'ArchivoBlack-Regular'" font-size="52" letter-spacing="-2">D</text>
<text transform="matrix(1 0 0 1 -560.6885 203.082)" fill="#000100" font-family="'ArchivoBlack-Regular'" font-size="52" letter-spacing="-3">o</text>
<text transform="matrix(1 0 0 1 -530.1641 203.082)" fill="#000100" font-family="'ArchivoBlack-Regular'" font-size="52" letter-spacing="-3">n</text>
<text transform="matrix(1 0 0 1 -499.4854 203.082)" fill="#000100" font-family="'ArchivoBlack-Regular'" font-size="52" letter-spacing="-1">’</text>
<text transform="matrix(1 0 0 1 -487.1172 203.082)" fill="#000100" font-family="'ArchivoBlack-Regular'" font-size="52">t </text>
<text transform="matrix(1 0 0 1 -446.6953 203.082)" fill="#000100" font-family="'ArchivoBlack-Regular'" font-size="52" letter-spacing="-5">w</text>
<text transform="matrix(1 0 0 1 -403.6992 203.082)" fill="#000100" font-family="'ArchivoBlack-Regular'" font-size="52" letter-spacing="-4">o</text>
<text transform="matrix(1 0 0 1 -374.2158 203.082)" fill="#000100" font-family="'ArchivoBlack-Regular'" font-size="52">r</text>
<text transform="matrix(1 0 0 1 -353.1113 203.082)" fill="#000100" font-family="'ArchivoBlack-Regular'" font-size="52">r</text>
<text transform="matrix(1 0 0 1 -331.1763 203.082)" fill="#000100" font-family="'ArchivoBlack-Regular'" font-size="52">y</text>
<g>
	<path fill="#00AEEF" d="M-766.31,487.444c1.718,0.296,3.233,0.792,4.545,1.484c1.312,0.694,2.353,1.612,3.123,2.755
		c0.77,1.144,1.155,2.562,1.155,4.253v10.716c0,0.575,0.131,1.059,0.394,1.446c0.262,0.391,0.681,0.584,1.257,0.584h1.879v5.992
		c-0.39,0.203-0.855,0.381-1.396,0.533c-0.457,0.135-1.024,0.254-1.701,0.354c-0.677,0.103-1.447,0.152-2.311,0.152
		c-2.099,0-3.779-0.312-5.04-0.938c-1.261-0.626-2.129-1.465-2.603-2.515c-0.576,0.457-1.202,0.894-1.879,1.309
		c-0.677,0.415-1.431,0.782-2.26,1.104c-0.83,0.322-1.739,0.575-2.729,0.762s-2.086,0.279-3.288,0.279
		c-1.422,0-2.729-0.131-3.923-0.394c-1.194-0.264-2.213-0.698-3.06-1.309c-0.847-0.608-1.507-1.403-1.98-2.387
		c-0.474-0.981-0.711-2.191-0.711-3.631c0-2.048,0.427-3.711,1.282-4.989c0.854-1.278,2.095-2.271,3.72-2.982
		c1.625-0.712,3.614-1.189,5.967-1.436c2.353-0.245,5.027-0.368,8.023-0.368v-1.346c0-0.559-0.106-1.045-0.317-1.46
		c-0.212-0.415-0.495-0.753-0.851-1.016c-0.355-0.263-0.779-0.462-1.27-0.598c-0.491-0.135-1.016-0.203-1.574-0.203
		c-0.457,0-0.918,0.038-1.384,0.114c-0.466,0.076-0.889,0.208-1.27,0.395c-0.381,0.187-0.69,0.432-0.927,0.735
		c-0.237,0.306-0.355,0.687-0.355,1.144v0.229H-786c-0.034-0.135-0.051-0.258-0.051-0.368c0-0.109,0-0.231,0-0.368
		c0-1.27,0.305-2.425,0.914-3.466c0.609-1.041,1.519-1.934,2.729-2.679s2.708-1.32,4.494-1.727s3.855-0.609,6.208-0.609
		C-769.827,487-768.028,487.148-766.31,487.444z M-767.846,503.123c-1.541,0-2.856,0.089-3.948,0.267
		c-1.092,0.179-1.985,0.423-2.679,0.736c-0.694,0.313-1.202,0.686-1.523,1.117c-0.322,0.432-0.482,0.9-0.482,1.409
		c0,0.542,0.102,0.981,0.305,1.319c0.203,0.339,0.47,0.603,0.8,0.787c0.33,0.188,0.707,0.317,1.13,0.395
		c0.423,0.075,0.854,0.113,1.295,0.113c0.66,0,1.299-0.093,1.917-0.278c0.618-0.187,1.164-0.448,1.638-0.787
		c0.474-0.338,0.851-0.74,1.13-1.206c0.279-0.466,0.419-0.979,0.419-1.536v-2.336H-767.846z"/>
	<path fill="#00AEEF" d="M-711.092,515.082h-8.43l-0.889-3.91c-1.016,1.541-2.26,2.684-3.732,3.428
		c-1.472,0.744-3.14,1.117-5.002,1.117c-1.812,0-3.437-0.297-4.875-0.889c-1.439-0.592-2.653-1.489-3.644-2.691
		c-0.99-1.201-1.748-2.704-2.272-4.507c-0.525-1.803-0.787-3.914-0.787-6.335c0-2.387,0.262-4.477,0.787-6.271
		c0.524-1.794,1.282-3.284,2.272-4.47c0.99-1.185,2.205-2.072,3.644-2.666c1.438-0.592,3.063-0.889,4.875-0.889
		c1.54,0,2.962,0.263,4.266,0.787c1.303,0.525,2.454,1.32,3.453,2.387v-12.797h10.334V515.082z M-727.99,495.023
		c-0.567,0.254-1.028,0.617-1.384,1.092c-0.355,0.474-0.614,1.037-0.774,1.688c-0.161,0.652-0.241,1.385-0.241,2.196v2.768
		c0,0.812,0.08,1.546,0.241,2.196c0.161,0.651,0.419,1.206,0.774,1.663s0.816,0.812,1.384,1.066
		c0.567,0.254,1.257,0.381,2.069,0.381s1.506-0.152,2.082-0.457c0.575-0.305,1.049-0.725,1.422-1.257
		c0.372-0.533,0.647-1.151,0.825-1.854c0.178-0.703,0.267-1.46,0.267-2.271v-1.701c0-0.812-0.089-1.574-0.267-2.285
		c-0.178-0.711-0.453-1.333-0.825-1.866c-0.373-0.533-0.847-0.956-1.422-1.27c-0.576-0.313-1.27-0.471-2.082-0.471
		S-727.423,494.77-727.99,495.023z"/>
	<path fill="#00AEEF" d="M-688.961,487.444c1.718,0.296,3.233,0.792,4.545,1.484c1.312,0.694,2.353,1.612,3.123,2.755
		c0.77,1.144,1.155,2.562,1.155,4.253v10.716c0,0.575,0.131,1.059,0.394,1.446c0.262,0.391,0.681,0.584,1.257,0.584h1.879v5.992
		c-0.39,0.203-0.855,0.381-1.396,0.533c-0.457,0.135-1.024,0.254-1.701,0.354c-0.677,0.103-1.447,0.152-2.311,0.152
		c-2.099,0-3.779-0.312-5.04-0.938c-1.261-0.626-2.129-1.465-2.604-2.515c-0.576,0.457-1.202,0.894-1.879,1.309
		c-0.677,0.415-1.431,0.782-2.26,1.104c-0.83,0.322-1.739,0.575-2.729,0.762c-0.99,0.187-2.086,0.279-3.288,0.279
		c-1.422,0-2.729-0.131-3.923-0.394c-1.194-0.264-2.213-0.698-3.06-1.309c-0.847-0.608-1.507-1.403-1.98-2.387
		c-0.474-0.981-0.711-2.191-0.711-3.631c0-2.048,0.427-3.711,1.282-4.989c0.854-1.278,2.095-2.271,3.72-2.982
		c1.625-0.712,3.614-1.189,5.967-1.436c2.353-0.245,5.027-0.368,8.023-0.368v-1.346c0-0.559-0.106-1.045-0.317-1.46
		c-0.212-0.415-0.495-0.753-0.851-1.016c-0.355-0.263-0.779-0.462-1.27-0.598c-0.491-0.135-1.016-0.203-1.574-0.203
		c-0.457,0-0.918,0.038-1.384,0.114s-0.889,0.208-1.27,0.395s-0.69,0.432-0.927,0.735c-0.237,0.306-0.355,0.687-0.355,1.144v0.229
		h-10.207c-0.034-0.135-0.051-0.258-0.051-0.368c0-0.109,0-0.231,0-0.368c0-1.27,0.305-2.425,0.914-3.466s1.519-1.934,2.729-2.679
		s2.708-1.32,4.494-1.727s3.855-0.609,6.208-0.609C-692.478,487-690.679,487.148-688.961,487.444z M-690.497,503.123
		c-1.541,0-2.856,0.089-3.948,0.267c-1.092,0.179-1.985,0.423-2.679,0.736s-1.202,0.686-1.523,1.117
		c-0.322,0.432-0.482,0.9-0.482,1.409c0,0.542,0.102,0.981,0.305,1.319c0.203,0.339,0.47,0.603,0.8,0.787
		c0.33,0.188,0.707,0.317,1.13,0.395c0.423,0.075,0.854,0.113,1.295,0.113c0.66,0,1.299-0.093,1.917-0.278
		c0.618-0.187,1.164-0.448,1.638-0.787c0.474-0.338,0.851-0.74,1.13-1.206s0.419-0.979,0.419-1.536v-2.336H-690.497z"/>
	<path fill="#00AEEF" d="M-657.486,514.244c-0.626,1.709-1.325,3.283-2.095,4.723c-0.771,1.438-1.697,2.68-2.78,3.721
		s-2.357,1.854-3.821,2.438c-1.464,0.584-3.195,0.876-5.192,0.876c-1.253,0-2.399-0.098-3.44-0.292s-1.883-0.411-2.526-0.646v-6.171
		h4.164c0.914,0,1.654-0.136,2.222-0.405c0.567-0.271,1.02-0.603,1.358-0.99c0.338-0.39,0.58-0.805,0.724-1.244
		s0.25-0.83,0.317-1.168l-10.918-27.447h11.121l5.256,18.256h0.355l4.85-18.256h10.182L-657.486,514.244z"/>
	<path fill="#00AEEF" d="M-592.899,487.698c1.177,0.466,2.149,1.139,2.92,2.019s1.346,1.959,1.727,3.237s0.571,2.729,0.571,4.354
		v17.773h-10.334v-16.529c0-1.15-0.279-2.09-0.838-2.817c-0.559-0.729-1.371-1.093-2.438-1.093c-0.626,0-1.193,0.114-1.701,0.344
		c-0.508,0.229-0.939,0.542-1.295,0.938c-0.355,0.398-0.631,0.859-0.825,1.384c-0.194,0.525-0.292,1.075-0.292,1.65v16.123h-10.359
		v-16.529c0-1.15-0.279-2.09-0.838-2.817c-0.559-0.729-1.371-1.093-2.438-1.093c-0.626,0-1.193,0.114-1.701,0.344
		c-0.508,0.229-0.939,0.542-1.295,0.938c-0.355,0.398-0.631,0.859-0.825,1.384c-0.195,0.525-0.292,1.075-0.292,1.65v16.123h-10.334
		v-27.447h8.48l0.66,4.088c0.524-0.728,1.138-1.384,1.841-1.968c0.702-0.584,1.468-1.079,2.298-1.484
		c0.829-0.406,1.705-0.72,2.628-0.939s1.857-0.33,2.806-0.33c2.116,0,3.863,0.411,5.243,1.231c1.38,0.82,2.408,1.984,3.085,3.49
		c0.524-0.711,1.139-1.357,1.841-1.941s1.46-1.079,2.272-1.485s1.667-0.724,2.564-0.952c0.897-0.228,1.812-0.343,2.742-0.343
		C-595.451,487-594.076,487.233-592.899,487.698z"/>
	<path fill="#00AEEF" d="M-565.652,487.444c1.718,0.296,3.233,0.792,4.545,1.484c1.312,0.694,2.353,1.612,3.123,2.755
		c0.77,1.144,1.155,2.562,1.155,4.253v10.716c0,0.575,0.131,1.059,0.394,1.446c0.263,0.391,0.682,0.584,1.257,0.584h1.879v5.992
		c-0.39,0.203-0.854,0.381-1.396,0.533c-0.457,0.135-1.024,0.254-1.701,0.354c-0.677,0.102-1.447,0.152-2.311,0.152
		c-2.099,0-3.779-0.312-5.04-0.938c-1.261-0.626-2.129-1.465-2.603-2.515c-0.575,0.457-1.202,0.894-1.879,1.309
		c-0.677,0.415-1.431,0.782-2.26,1.104c-0.829,0.322-1.739,0.575-2.729,0.762c-0.99,0.187-2.086,0.279-3.288,0.279
		c-1.422,0-2.729-0.131-3.923-0.394c-1.194-0.264-2.213-0.698-3.06-1.309c-0.847-0.609-1.507-1.403-1.98-2.387
		c-0.474-0.981-0.711-2.191-0.711-3.631c0-2.048,0.428-3.711,1.282-4.989s2.095-2.271,3.72-2.982
		c1.625-0.712,3.614-1.189,5.967-1.436c2.353-0.245,5.027-0.368,8.023-0.368v-1.346c0-0.559-0.105-1.045-0.317-1.46
		s-0.495-0.753-0.851-1.016c-0.355-0.263-0.778-0.462-1.27-0.598c-0.491-0.135-1.016-0.203-1.574-0.203
		c-0.457,0-0.918,0.038-1.384,0.114s-0.889,0.208-1.27,0.395s-0.689,0.432-0.927,0.735c-0.238,0.305-0.354,0.687-0.354,1.144v0.229
		h-10.207c-0.034-0.135-0.051-0.258-0.051-0.368c0-0.109,0-0.231,0-0.368c0-1.27,0.305-2.425,0.914-3.466s1.52-1.934,2.729-2.679
		c1.21-0.745,2.708-1.32,4.494-1.727c1.786-0.407,3.857-0.606,6.209-0.606C-569.169,487-567.37,487.148-565.652,487.444z
		 M-567.188,503.123c-1.54,0-2.856,0.089-3.948,0.267c-1.092,0.179-1.984,0.423-2.679,0.736c-0.694,0.313-1.202,0.686-1.523,1.117
		c-0.321,0.431-0.482,0.9-0.482,1.409c0,0.542,0.102,0.981,0.305,1.319c0.203,0.339,0.47,0.603,0.8,0.787
		c0.33,0.188,0.707,0.317,1.13,0.395s0.854,0.113,1.295,0.113c0.66,0,1.299-0.093,1.917-0.278c0.618-0.187,1.164-0.448,1.638-0.787
		c0.474-0.338,0.851-0.74,1.13-1.206s0.419-0.979,0.419-1.536v-2.336H-567.188z"/>
	<path fill="#00AEEF" d="M-524.656,515.082h-8.43l-0.889-3.91c-1.016,1.541-2.26,2.684-3.732,3.428
		c-1.472,0.744-3.14,1.117-5.002,1.117c-1.812,0-3.437-0.297-4.875-0.889s-2.653-1.489-3.644-2.691
		c-0.99-1.201-1.748-2.704-2.272-4.507s-0.787-3.914-0.787-6.335c0-2.387,0.263-4.477,0.787-6.271s1.282-3.284,2.272-4.47
		c0.99-1.185,2.205-2.072,3.644-2.666c1.438-0.592,3.063-0.889,4.875-0.889c1.54,0,2.962,0.263,4.266,0.787
		c1.304,0.525,2.454,1.32,3.453,2.387v-12.797h10.334V515.082z M-541.554,495.023c-0.567,0.254-1.028,0.617-1.384,1.092
		c-0.355,0.474-0.613,1.037-0.774,1.688c-0.161,0.652-0.241,1.385-0.241,2.196v2.768c0,0.812,0.08,1.546,0.241,2.196
		c0.161,0.651,0.419,1.206,0.774,1.663s0.816,0.812,1.384,1.066c0.568,0.254,1.257,0.381,2.069,0.381s1.507-0.152,2.082-0.457
		c0.575-0.305,1.05-0.725,1.422-1.257c0.372-0.533,0.647-1.151,0.825-1.854c0.178-0.703,0.267-1.46,0.267-2.271v-1.701
		c0-0.812-0.089-1.574-0.267-2.285c-0.178-0.711-0.453-1.333-0.825-1.866s-0.847-0.956-1.422-1.27
		c-0.575-0.313-1.27-0.471-2.082-0.471S-540.986,494.77-541.554,495.023z"/>
	<path fill="#00AEEF" d="M-500.696,487.851c1.921,0.567,3.542,1.439,4.862,2.615c1.32,1.177,2.323,2.666,3.009,4.469
		c0.686,1.804,1.028,3.94,1.028,6.411v1.777h-20.592c0,1.896,0.428,3.364,1.282,4.405s2.264,1.562,4.228,1.562
		c0.931,0,1.718-0.102,2.361-0.305s1.164-0.486,1.562-0.852c0.398-0.364,0.686-0.786,0.863-1.27
		c0.177-0.483,0.267-1.003,0.267-1.562h10.029c0,1.644-0.309,3.119-0.927,4.432c-0.618,1.312-1.549,2.425-2.793,3.339
		c-1.244,0.914-2.793,1.617-4.646,2.106c-1.853,0.49-4.016,0.736-6.487,0.736s-4.701-0.283-6.69-0.851
		c-1.989-0.568-3.678-1.442-5.065-2.628c-1.388-1.186-2.454-2.68-3.199-4.481s-1.117-3.938-1.117-6.411
		c0-2.402,0.364-4.502,1.092-6.297c0.728-1.794,1.765-3.288,3.11-4.48c1.345-1.193,2.971-2.086,4.875-2.68
		c1.904-0.592,4.024-0.889,6.36-0.889C-504.813,487-502.617,487.284-500.696,487.851z M-510.776,494.846
		c-0.854,0.83-1.375,1.955-1.562,3.377h10.105c0-1.438-0.406-2.567-1.219-3.39c-0.812-0.821-1.955-1.231-3.428-1.231
		C-508.622,493.602-509.922,494.017-510.776,494.846z"/>
	<path fill="#00AEEF" d="M-463.201,476.844c0.508,0.051,1.02,0.114,1.536,0.19s1.016,0.174,1.498,0.292
		c0.482,0.119,0.901,0.236,1.257,0.354v6.095h-2.387c-0.575,0-1.05,0.055-1.422,0.165c-0.372,0.109-0.669,0.274-0.889,0.494
		c-0.22,0.221-0.377,0.509-0.47,0.863c-0.093,0.355-0.14,0.771-0.14,1.244v1.092h5.307v7.008h-5.307v20.439h-10.334v-20.439h-3.859
		v-7.008h3.859v-1.143c0-1.879,0.245-3.44,0.736-4.686c0.491-1.245,1.177-2.237,2.057-2.982c0.88-0.745,1.938-1.273,3.174-1.587
		c1.235-0.313,2.59-0.471,4.062-0.471C-464.149,476.768-463.709,476.793-463.201,476.844z"/>
	<path fill="#00AEEF" d="M-438.899,487.889c1.913,0.594,3.542,1.485,4.888,2.68c1.346,1.193,2.387,2.688,3.123,4.48
		c0.736,1.794,1.104,3.895,1.104,6.297c0,2.404-0.368,4.507-1.104,6.311c-0.736,1.803-1.777,3.301-3.123,4.494
		c-1.346,1.192-2.975,2.087-4.888,2.679s-4.037,0.889-6.373,0.889s-4.456-0.297-6.36-0.889c-1.904-0.592-3.529-1.485-4.875-2.679
		c-1.346-1.194-2.383-2.691-3.11-4.494c-0.727-1.804-1.092-3.906-1.092-6.311c0-2.402,0.364-4.502,1.092-6.297
		c0.728-1.794,1.765-3.288,3.11-4.48c1.345-1.193,2.971-2.086,4.875-2.68c1.904-0.592,4.024-0.889,6.36-0.889
		S-440.812,487.296-438.899,487.889z M-447.608,494.439c-0.644,0.271-1.168,0.659-1.574,1.168c-0.406,0.508-0.707,1.121-0.901,1.841
		s-0.292,1.536-0.292,2.45v2.971c0,0.914,0.098,1.73,0.292,2.45s0.495,1.329,0.901,1.828c0.406,0.499,0.931,0.88,1.574,1.143
		s1.422,0.394,2.336,0.394c1.812,0,3.123-0.516,3.936-1.549c0.812-1.031,1.219-2.454,1.219-4.266v-2.971
		c0-0.914-0.098-1.73-0.292-2.45c-0.194-0.719-0.504-1.333-0.927-1.841c-0.423-0.509-0.956-0.897-1.6-1.168
		c-0.644-0.271-1.422-0.406-2.336-0.406S-446.965,494.169-447.608,494.439z"/>
	<path fill="#00AEEF" d="M-410.966,487.051c0.372,0.068,0.694,0.145,0.965,0.229c0.305,0.085,0.575,0.187,0.812,0.305v8.684h-3.326
		c-1.117,0-2.065,0.148-2.844,0.444c-0.778,0.296-1.409,0.729-1.892,1.295c-0.482,0.567-0.829,1.261-1.041,2.082
		s-0.317,1.748-0.317,2.78v12.213h-10.334v-27.447h8.48l0.66,4.14c0.321-0.812,0.745-1.523,1.27-2.134
		c0.525-0.609,1.113-1.112,1.765-1.511c0.651-0.396,1.362-0.693,2.133-0.889c0.771-0.194,1.562-0.292,2.374-0.292
		C-411.77,486.949-411.338,486.983-410.966,487.051z"/>
</g>
<text transform="matrix(1 0 0 1 -598.0137 -85.4727)" fill="#000100" font-family="'Sofia-Regular'" font-size="214.6218" letter-spacing="-20">y</text>
<text transform="matrix(1 0 0 1 -514.9551 -85.4727)" fill="#000100" font-family="'Sofia-Regular'" font-size="214.6218" letter-spacing="-11">a</text>
<text transform="matrix(1 0 0 1 -411.0796 -85.4727)" fill="#000100" font-family="'Sofia-Regular'" font-size="214.6218" letter-spacing="-20">y</text>
<text transform="matrix(1 0 0 1 -328.0215 -85.4727)" fill="#000100" font-family="'Sofia-Regular'" font-size="214.6218" letter-spacing="-11">.</text>
<text transform="matrix(1 0 0 1 -598.0137 -208.918)" fill="#000100" font-family="'ArchivoBlack-Regular'" font-size="52" letter-spacing="-2">a day made f</text>
<text transform="matrix(1 0 0 1 -271.3262 -208.918)" fill="#000100" font-family="'ArchivoBlack-Regular'" font-size="52" letter-spacing="-3">o</text>
<text transform="matrix(1 0 0 1 -240.8032 -208.918)" fill="#000100" font-family="'ArchivoBlack-Regular'" font-size="52" letter-spacing="-2">r</text>
<text transform="matrix(1 0 0 1 -598.0146 314.5)" fill="#000100" font-family="'Sofia-Regular'" font-size="52">art degree</text>
<text transform="matrix(1 0 0 1 -598.0137 259.7988)" fill="#000100" font-family="'CarroisGothic-Regular'" font-size="52" letter-spacing="2">I’ve got an</text>
<text transform="matrix(1 0 0 1 -365.4355 682.5664)" fill="#000100" font-family="'Sofia-Regular'" font-size="214.6218" letter-spacing="-11">cit</text>
<text transform="matrix(1 0 0 1 -365.4336 751.0654)" fill="#000100" font-family="'ArchivoBlack-Regular'" font-size="84.1822" letter-spacing="-5">yp</text>
<text transform="matrix(1 0 0 1 -271.3315 751.0654)" fill="#000100" font-family="'ArchivoBlack-Regular'" font-size="84.1822" letter-spacing="-4">o</text>
<text transform="matrix(1 0 0 1 -373.0239 822.2695)" fill="#000100" font-family="'CarroisGothic-Regular'" font-size="52" letter-spacing="2">graphy</text>
<g>
	<path fill="#FFFFFF" d="M379.416,16.239c2.34,0,4.332-0.795,5.972-2.388c1.638-1.592,2.459-3.559,2.459-5.901
		c0-2.34-0.821-4.331-2.459-5.971c-1.64-1.637-3.632-2.458-5.972-2.458c-2.342,0-4.31,0.821-5.9,2.458
		c-1.592,1.64-2.389,3.631-2.389,5.971c0,2.342,0.797,4.31,2.389,5.901C375.106,15.444,377.074,16.239,379.416,16.239z"/>
	<path fill="#FFFFFF" d="M449.802,57.825c-1.219,0-1.92,0.281-2.107,0.843c0,9.648-1.359,16.627-4.074,20.934
		c-2.718,4.31-6.979,6.463-12.785,6.463c-3.842,0-7.349-1.405-10.297-4.214C417.587,79.041,416,75.06,416,69.908v-1.422
		c0-1.049,0.143-2.118,0.143-3.215c0-1.169-0.143-2.194-0.143-3.088V35h24.25c0-2-0.307-3.584-0.914-4.335
		c-0.609-0.748-1.896-1.665-3.863-1.665H416V8.792c-1-1.311-2.933-1.967-5.086-1.967c-2.156,0-3.668,0.727-5.072,2.178
		c-1.405,1.453-1.842,3.583-1.842,6.393v51.562c0,5.33,0.777,9.792,2.742,13.399c-2.933,3.805-6.176,5.708-9.519,5.708
		c-3.56,0-6.222-1.357-8.281-4.074C386.88,79.275,386,75.247,386,69.908v-0.213c0-1.099,0.281-2.199,0.281-3.299
		c0-0.821-0.281-1.503-0.281-2.076V29.586c-2-1.311-3.246-1.967-5.398-1.967c-2.156,0-4.012,0.727-5.416,2.178
		C373.779,31.25,373,33.379,373,36.189v29.504c0,5.238,0.727,9.717,2.221,13.441c-0.314,0.329-0.65,0.651-0.991,0.959
		c-4.403,3.983-9.841,5.971-16.304,5.971s-11.502-2.059-15.106-6.182c-3.606-4.12-5.411-10.793-5.411-20.02
		c0-9.224,0.959-15.992,2.879-20.302c1.92-4.308,5.08-6.463,9.483-6.463c2.528,0,4.683,1.078,6.463,3.231
		c1.778,2.156,2.669,4.544,2.669,7.166c0,2.623-0.281,4.636-0.843,6.041c0.749,1.124,2.34,1.686,4.776,1.686
		c1.311,0,2.668-0.703,4.074-2.108c1.404-1.405,2.107-3.277,2.107-5.619c0-4.308-1.359-8.031-4.075-11.169
		c-2.718-3.138-7.024-4.707-12.925-4.707c-8.148,0-14.848,2.88-20.092,8.641c-5.244,5.761-7.865,13.769-7.865,24.025
		c0,10.257,2.973,18.032,8.921,23.322c5.947,5.293,14.166,7.938,24.657,7.938c4.777,0,9.062-0.843,12.855-2.529
		c3.022-1.344,5.5-2.99,7.453-4.929c0.182,0.242,0.363,0.481,0.555,0.713c3.699,4.497,9.342,6.744,16.93,6.744
		c5.73,0,10.508-2.284,14.33-6.851c0.229,0.228,0.46,0.453,0.701,0.669c4.588,4.123,10.817,6.182,18.686,6.182
		s13.699-2.48,17.492-7.446c3.793-4.963,5.689-11.24,5.689-18.827C452.332,60.308,451.488,57.825,449.802,57.825z"/>
</g>
<path fill="#FFFFFF" d="M335.649,124.951c-0.325,1.191-0.657,2.249-0.997,3.171c-0.338,0.922-0.738,1.694-1.199,2.317
	c-0.461,0.625-1.017,1.104-1.666,1.445c-0.652,0.338-1.451,0.508-2.399,0.508c-0.624,0-1.24-0.096-1.851-0.285
	c-0.609-0.188-1.104-0.42-1.483-0.691l1.139-2.154c0.759,0.407,1.464,0.61,2.115,0.61c0.435,0,0.807-0.082,1.118-0.244
	c0.312-0.163,0.59-0.44,0.834-0.834c0.244-0.392,0.468-0.914,0.671-1.565c0.204-0.649,0.427-1.451,0.671-2.398h-1.426l-7.115-21.959
	h3.416l5.938,19.6l5.326-19.6h3.131L335.649,124.951z"/>
<path fill="#FFFFFF" d="M347.97,132.148v-29.277h2.765l0.204,2.604c0.705-1.004,1.551-1.789,2.542-2.358
	c0.989-0.569,2.095-0.854,3.313-0.854c0.977,0,1.885,0.198,2.726,0.59c0.839,0.394,1.565,1.023,2.175,1.891
	c0.61,0.867,1.084,2.013,1.424,3.437c0.338,1.423,0.508,3.165,0.508,5.226c0,3.849-0.678,6.783-2.033,8.804
	c-1.356,2.019-3.309,3.028-5.856,3.028c-0.948,0-1.803-0.161-2.562-0.486c-0.76-0.325-1.41-0.771-1.952-1.343v8.743h-3.253V132.148z
	 M356.021,104.943c-0.949,0-1.811,0.265-2.582,0.793c-0.773,0.529-1.511,1.269-2.216,2.218v12.89
	c0.624,0.676,1.267,1.172,1.932,1.483c0.664,0.313,1.308,0.468,1.931,0.468c0.787,0,1.492-0.169,2.115-0.507
	c0.623-0.339,1.158-0.888,1.606-1.647c0.446-0.759,0.793-1.748,1.036-2.968c0.244-1.219,0.367-2.71,0.367-4.474
	c0-1.626-0.097-2.969-0.285-4.025c-0.19-1.058-0.469-1.898-0.834-2.521c-0.366-0.623-0.807-1.063-1.321-1.32
	C357.253,105.073,356.671,104.943,356.021,104.943z"/>
<path fill="#FFFFFF" d="M371.188,113.85c0-2.248,0.265-4.119,0.793-5.611c0.528-1.49,1.22-2.676,2.074-3.557
	c0.854-0.883,1.815-1.505,2.887-1.871c1.071-0.367,2.136-0.55,3.192-0.55c1.029,0,2.074,0.177,3.131,0.529s2.013,0.969,2.867,1.851
	c0.854,0.881,1.551,2.067,2.094,3.559c0.542,1.49,0.812,3.374,0.812,5.65c0,2.277-0.264,4.147-0.793,5.611
	c-0.527,1.464-1.213,2.624-2.053,3.477c-0.84,0.854-1.796,1.451-2.867,1.791c-1.07,0.336-2.135,0.506-3.191,0.506
	c-1.031,0-2.081-0.17-3.151-0.506c-1.071-0.34-2.032-0.942-2.887-1.812c-0.854-0.867-1.552-2.033-2.095-3.497
	S371.188,116.1,371.188,113.85z M374.604,113.85c0,3.09,0.508,5.342,1.524,6.75c1.018,1.409,2.365,2.114,4.045,2.114
	c1.681,0,3.017-0.69,4.006-2.073c0.988-1.383,1.484-3.646,1.484-6.791c0-1.572-0.137-2.928-0.408-4.065
	c-0.271-1.138-0.649-2.081-1.139-2.826c-0.488-0.745-1.07-1.295-1.748-1.647c-0.678-0.352-1.423-0.527-2.236-0.527
	c-1.6,0-2.922,0.738-3.965,2.216S374.604,110.759,374.604,113.85z"/>
<path fill="#FFFFFF" d="M413.07,103.889h-4.796c1.11,0.461,2.024,1.166,2.744,2.113c0.718,0.949,1.077,2.197,1.077,3.741
	c0,1.274-0.237,2.373-0.711,3.293c-0.475,0.922-1.092,1.682-1.85,2.276c-0.76,0.598-1.613,1.037-2.562,1.322
	c-0.949,0.284-1.885,0.428-2.807,0.428c-0.569,0-1.152-0.055-1.748-0.164c-0.598-0.107-1.18-0.271-1.75-0.487
	c-0.597,0.515-0.895,1.017-0.895,1.505c0,0.243,0.047,0.475,0.143,0.689c0.096,0.218,0.291,0.408,0.59,0.57
	c0.298,0.162,0.746,0.305,1.342,0.428c0.596,0.121,1.408,0.209,2.439,0.264c1.383,0.082,2.629,0.238,3.741,0.468
	c1.111,0.229,2.06,0.589,2.847,1.078c0.785,0.487,1.389,1.11,1.809,1.87s0.631,1.708,0.631,2.846c0,0.84-0.197,1.661-0.59,2.46
	c-0.393,0.8-0.977,1.519-1.749,2.156c-0.772,0.637-1.741,1.144-2.907,1.524c-1.166,0.379-2.521,0.569-4.066,0.569
	c-2.765,0-4.879-0.528-6.344-1.587c-1.464-1.056-2.195-2.453-2.195-4.188c0-1.221,0.324-2.271,0.976-3.151s1.491-1.593,2.521-2.136
	c-0.705-0.353-1.199-0.785-1.483-1.301c-0.285-0.514-0.427-1.084-0.427-1.707c0-0.785,0.195-1.437,0.59-1.951
	c0.392-0.517,0.9-0.922,1.523-1.221c-0.867-0.596-1.593-1.375-2.175-2.339c-0.584-0.961-0.875-2.134-0.875-3.517
	c0-1.247,0.237-2.338,0.712-3.273c0.473-0.935,1.104-1.714,1.891-2.338c0.785-0.624,1.673-1.091,2.664-1.402
	c0.988-0.312,1.998-0.468,3.029-0.468l8.254-1.505L413.07,103.889z M402.986,122.714c-0.434-0.026-0.826-0.067-1.179-0.122
	c-0.353-0.054-0.69-0.107-1.017-0.162c-0.625,0.514-1.125,1.092-1.504,1.728c-0.381,0.638-0.57,1.429-0.57,2.379
	c0,0.514,0.088,1.016,0.265,1.505c0.177,0.488,0.468,0.928,0.875,1.32c0.407,0.394,0.942,0.707,1.606,0.937s1.498,0.345,2.5,0.345
	c1.166,0,2.129-0.147,2.889-0.445c0.758-0.299,1.361-0.668,1.809-1.1c0.447-0.435,0.758-0.902,0.936-1.402
	c0.176-0.502,0.265-0.956,0.265-1.362c0-0.515-0.089-0.976-0.265-1.382c-0.178-0.407-0.508-0.752-0.995-1.037
	c-0.489-0.285-1.181-0.529-2.075-0.732C405.628,122.979,404.451,122.822,402.986,122.714z M399.367,109.743
	c0,1.519,0.434,2.725,1.301,3.62c0.867,0.895,2.033,1.341,3.498,1.341c1.463,0,2.608-0.446,3.437-1.341
	c0.826-0.896,1.241-2.102,1.241-3.62s-0.387-2.751-1.16-3.7c-0.771-0.949-1.877-1.424-3.312-1.424c-0.732,0-1.404,0.122-2.014,0.365
	c-0.609,0.244-1.139,0.591-1.586,1.039c-0.447,0.446-0.793,0.99-1.037,1.625C399.489,108.285,399.367,108.984,399.367,109.743z"/>
<path fill="#FFFFFF" d="M420.43,124.829v-21.958h2.969l0.121,3.09c0.542-1.22,1.233-2.128,2.073-2.725
	c0.841-0.596,1.777-0.895,2.807-0.895c0.38,0,0.706,0.014,0.977,0.04c0.271,0.027,0.598,0.109,0.977,0.244l-0.812,3.051
	c-0.244-0.054-0.496-0.102-0.754-0.143c-0.257-0.041-0.548-0.062-0.873-0.062c-0.541,0-1.022,0.116-1.443,0.346
	c-0.422,0.229-0.801,0.55-1.139,0.955c-0.34,0.406-0.645,0.875-0.916,1.403c-0.271,0.528-0.515,1.077-0.731,1.647v15.004
	L420.43,124.829L420.43,124.829z"/>
<path fill="#FFFFFF" d="M447.632,124.829l-0.161-2.44c-0.597,0.813-1.376,1.491-2.339,2.034c-0.961,0.541-2.189,0.812-3.68,0.812
	c-0.787,0-1.58-0.114-2.377-0.344c-0.801-0.23-1.519-0.597-2.156-1.099c-0.639-0.501-1.16-1.146-1.565-1.931
	c-0.408-0.786-0.61-1.75-0.61-2.889c0-2.385,0.981-4.269,2.948-5.65c1.966-1.383,5.129-2.115,9.494-2.195v-1.83
	c0-1.301-0.319-2.379-0.955-3.234c-0.64-0.854-1.715-1.28-3.233-1.28c-1.166,0-2.135,0.292-2.908,0.875
	c-0.771,0.583-1.361,1.43-1.768,2.542l-2.968-1.141c0.649-1.463,1.626-2.627,2.929-3.496c1.301-0.867,2.899-1.302,4.797-1.302
	c1.246,0,2.332,0.171,3.252,0.509s1.688,0.799,2.297,1.383c0.611,0.582,1.064,1.273,1.363,2.072
	c0.297,0.801,0.447,1.661,0.447,2.582v16.022H447.632z M442.347,122.633c1.029,0,1.938-0.23,2.725-0.691
	c0.785-0.461,1.49-1.043,2.114-1.748v-6.506c-3.117,0.055-5.408,0.494-6.871,1.321c-1.465,0.827-2.196,2.067-2.196,3.72
	c0,1.383,0.414,2.379,1.24,2.989C440.184,122.328,441.182,122.633,442.347,122.633z"/>
<path fill="#FFFFFF" d="M356.229,148.855c2.019,0.832,3.722,2.084,5.112,3.758c1.39,1.675,2.451,3.777,3.188,6.306
	c0.736,2.529,1.104,5.493,1.104,8.89c0,3.348-0.368,6.28-1.104,8.799c-0.737,2.518-1.799,4.613-3.188,6.287
	c-1.391,1.676-3.094,2.926-5.112,3.76c-2.019,0.83-4.299,1.246-6.84,1.246c-2.209,0-4.216-0.356-6.021-1.068
	c-1.806-0.713-3.41-1.816-4.811-3.312v17.848H324.06V148.5h11.827l1.247,5.451c1.425-2.16,3.17-3.758,5.236-4.791
	c2.066-1.034,4.405-1.549,7.019-1.549C351.93,147.609,354.21,148.025,356.229,148.855z M341.943,158.975
	c-0.809,0.426-1.473,1.015-1.994,1.762c-0.523,0.748-0.908,1.617-1.158,2.603s-0.375,2.048-0.375,3.188v2.386
	c0,1.142,0.125,2.209,0.375,3.208c0.25,0.998,0.635,1.869,1.158,2.617c0.522,0.748,1.188,1.343,1.994,1.781s1.781,0.66,2.921,0.66
	s2.107-0.179,2.903-0.535c0.795-0.355,1.443-0.867,1.941-1.533c0.498-0.663,0.859-1.454,1.086-2.368
	c0.226-0.914,0.338-1.941,0.338-3.081v-3.885c0-1.139-0.112-2.166-0.338-3.079c-0.227-0.914-0.588-1.693-1.086-2.333
	c-0.5-0.643-1.146-1.141-1.941-1.497c-0.796-0.354-1.764-0.533-2.903-0.533C343.725,158.333,342.75,158.546,341.943,158.975z"/>
<path fill="#FFFFFF" d="M382.774,152.489c1.543-1.542,3.36-2.741,5.45-3.597c2.089-0.855,4.287-1.283,6.59-1.283
	c2.279,0,4.264,0.326,5.95,0.979s3.082,1.599,4.187,2.832c1.104,1.236,1.928,2.749,2.475,4.542c0.547,1.795,0.82,3.831,0.82,6.11
	v24.937h-14.5V163.82c0-1.615-0.41-2.936-1.229-3.955c-0.818-1.021-2.048-1.532-3.688-1.532c-0.902,0-1.728,0.16-2.476,0.479
	c-0.749,0.32-1.39,0.761-1.924,1.318c-0.535,0.559-0.944,1.206-1.229,1.941c-0.285,0.738-0.427,1.509-0.427,2.314v22.622h-14.5
	v-52.901h14.5V152.489L382.774,152.489z"/>
<path fill="#FFFFFF" d="M439.028,185.835c-0.878,2.397-1.858,4.608-2.938,6.625c-1.082,2.019-2.381,3.759-3.9,5.22
	c-1.521,1.461-3.309,2.6-5.361,3.42c-2.056,0.818-4.482,1.229-7.287,1.229c-1.758,0-3.365-0.137-4.826-0.409
	s-2.644-0.575-3.545-0.908v-8.657h5.842c1.283,0,2.32-0.189,3.117-0.569c0.795-0.379,1.431-0.845,1.906-1.39
	c0.475-0.547,0.812-1.129,1.014-1.746s0.351-1.164,0.445-1.639l-15.315-38.51h15.604l7.373,25.615h0.499l6.804-25.615h14.287
	L439.028,185.835z"/>
<g>
	<g>
		<path d="M-747.504,50.815l-9.327,9.327l-9.89-9.963l9.324-9.398l-2.329-2.188l6.921-6.925l2.191,2.188l9.258-9.324l9.893,10.033
			l-9.188,9.325l48.541,46.491l-9.256,9.327L-747.504,50.815z"/>
	</g>
	<g opacity="0.5">
		<path d="M-711.231,43.961l-9.255-9.396l9.964-10.033l9.254,9.396l2.191-2.26l6.854,6.925c0,0-2.26,2.188-2.262,2.188
			c0.012-0.012,5.829,8.309,6.266,9.229c2.663,5.608,1.005,10.907-1.035,16.35l-15.123-15.545l-46.068,48.894l-9.254-9.327
			L-711.231,43.961z"/>
	</g>
</g>
<g>
	<path fill="#111114" d="M104.191,149.32c0.406,0.394,0.941,0.707,1.605,0.937s1.498,0.345,2.5,0.345
		c1.166,0,2.129-0.147,2.889-0.445c0.758-0.299,1.361-0.668,1.809-1.1c0.447-0.435,0.758-0.902,0.936-1.402
		c0.176-0.502,0.266-0.956,0.266-1.362c0-0.515-0.09-0.976-0.266-1.382c-0.178-0.407-0.508-0.752-0.994-1.037
		c-0.49-0.285-1.182-0.529-2.076-0.732c-0.896-0.203-2.074-0.359-3.539-0.468c-0.434-0.026-0.826-0.067-1.178-0.122
		c-0.354-0.054-0.691-0.107-1.018-0.162c-0.625,0.514-1.125,1.092-1.504,1.728c-0.381,0.638-0.57,1.429-0.57,2.379
		c0,0.514,0.088,1.016,0.266,1.505C103.492,148.488,103.783,148.928,104.191,149.32z"/>
	<path fill="#111114" d="M88.451,126.917c-0.488-0.745-1.07-1.295-1.748-1.647c-0.678-0.352-1.422-0.527-2.236-0.527
		c-1.6,0-2.922,0.738-3.965,2.216s-1.562,3.76-1.562,6.851c0,3.09,0.508,5.342,1.523,6.75c1.018,1.409,2.365,2.114,4.045,2.114
		c1.682,0,3.018-0.69,4.006-2.073s1.484-3.646,1.484-6.791c0-1.572-0.137-2.928-0.408-4.065
		C89.32,128.605,88.941,127.662,88.451,126.917z"/>
	<path fill="#111114" d="M63.426,126.611c-0.366-0.623-0.807-1.063-1.321-1.32c-0.517-0.259-1.099-0.389-1.749-0.389
		c-0.949,0-1.811,0.265-2.582,0.793c-0.773,0.529-1.511,1.269-2.216,2.218v12.89c0.624,0.676,1.267,1.172,1.932,1.483
		c0.664,0.313,1.308,0.468,1.931,0.468c0.787,0,1.492-0.169,2.115-0.507c0.623-0.339,1.158-0.888,1.606-1.647
		c0.446-0.759,0.793-1.748,1.036-2.968c0.244-1.219,0.367-2.71,0.367-4.474c0-1.626-0.097-2.969-0.285-4.025
		C64.069,128.075,63.791,127.234,63.426,126.611z"/>
	<path fill="#111114" d="M108.5,134.663c1.463,0,2.609-0.446,3.438-1.341c0.826-0.896,1.24-2.102,1.24-3.62s-0.387-2.751-1.16-3.7
		c-0.771-0.949-1.877-1.424-3.312-1.424c-0.732,0-1.404,0.122-2.014,0.365c-0.609,0.244-1.139,0.591-1.586,1.039
		c-0.447,0.446-0.793,0.99-1.037,1.625c-0.244,0.637-0.367,1.336-0.367,2.095c0,1.519,0.434,2.725,1.301,3.62
		C105.869,134.217,107.035,134.663,108.5,134.663z"/>
	<path fill="#111114" d="M142.453,138.688c0,1.383,0.414,2.379,1.24,2.989s1.824,0.915,2.988,0.915c1.029,0,1.938-0.23,2.725-0.691
		c0.785-0.461,1.49-1.043,2.115-1.748v-6.506c-3.117,0.055-5.408,0.494-6.871,1.321
		C143.185,135.795,142.453,137.035,142.453,138.688z"/>
	<path fill="#111114" d="M0,0v242h177V0H0z M77.849,21.938c1.592-1.637,3.559-2.457,5.9-2.457c2.34,0,4.332,0.82,5.973,2.457
		c1.637,1.641,2.459,3.631,2.459,5.972c0,2.342-0.822,4.309-2.459,5.901c-1.641,1.592-3.633,2.388-5.973,2.388
		c-2.342,0-4.309-0.796-5.9-2.388s-2.389-3.56-2.389-5.901C75.46,25.568,76.257,23.578,77.849,21.938z M36.26,56.218
		c5.244-5.761,11.943-8.641,20.091-8.641c5.9,0,10.207,1.569,12.925,4.707c2.715,3.138,4.074,6.86,4.074,11.169
		c0,2.342-0.703,4.214-2.107,5.619c-1.406,1.404-2.764,2.107-4.074,2.107c-2.436,0-4.027-0.562-4.776-1.686
		c0.562-1.405,0.843-3.418,0.843-6.041c0-2.622-0.891-5.01-2.669-7.166c-1.78-2.153-3.935-3.23-6.463-3.23
		c-4.403,0-7.563,2.154-9.483,6.463c-1.92,4.31-2.879,11.078-2.879,20.301c0,9.228,1.805,15.9,5.411,20.021
		c3.604,4.123,8.644,6.183,15.106,6.183c6.462,0,11.9-1.988,16.304-5.972c0.34-0.308,0.676-0.63,0.99-0.959
		c-1.494-3.724-2.221-8.202-2.221-13.44V56.148c0-2.811,0.779-4.939,2.186-6.393c1.404-1.451,3.26-2.178,5.416-2.178
		c2.152,0,3.398,0.656,5.398,1.967v34.734c0,0.572,0.281,1.255,0.281,2.076c0,1.1-0.281,2.199-0.281,3.299v0.213
		c0,5.339,0.881,9.367,2.943,12.083c2.059,2.717,4.721,4.073,8.281,4.073c3.342,0,6.586-1.902,9.518-5.707
		c-1.965-3.607-2.742-8.069-2.742-13.399V35.355c0-2.811,0.438-4.94,1.842-6.394c1.404-1.451,2.916-2.178,5.072-2.178
		c2.154,0,4.086,0.655,5.086,1.967v20.208h19.473c1.967,0,3.254,0.917,3.863,1.665c0.607,0.751,0.914,2.335,0.914,4.335h-24.25
		v27.184c0,0.894,0.143,1.918,0.143,3.088c0,1.097-0.143,2.166-0.143,3.215v1.422c0,5.152,1.588,9.133,4.539,11.943
		c2.949,2.809,6.455,4.213,10.297,4.213c5.807,0,10.068-2.152,12.785-6.463c2.715-4.307,4.074-11.285,4.074-20.934
		c0.188-0.562,0.889-0.843,2.107-0.843c1.686,0,2.529,2.483,2.527,7.444c0,7.588-1.896,13.864-5.689,18.828
		c-3.793,4.965-9.623,7.445-17.492,7.445c-7.867,0-14.098-2.059-18.686-6.182c-0.24-0.217-0.473-0.441-0.701-0.67
		c-3.822,4.567-8.6,6.852-14.33,6.852c-7.588,0-13.23-2.247-16.93-6.744c-0.191-0.232-0.373-0.471-0.555-0.713
		c-1.953,1.939-4.43,3.585-7.453,4.93c-3.793,1.686-8.078,2.528-12.855,2.528c-10.491,0-18.71-2.646-24.657-7.938
		c-5.949-5.289-8.921-13.064-8.921-23.321S31.016,61.979,36.26,56.218z M150.566,126.021c-0.641-0.854-1.715-1.28-3.234-1.28
		c-1.166,0-2.135,0.292-2.908,0.875c-0.77,0.583-1.361,1.43-1.768,2.542l-2.967-1.141c0.648-1.463,1.625-2.627,2.928-3.496
		c1.301-0.867,2.9-1.302,4.797-1.302c1.246,0,2.332,0.171,3.252,0.509s1.689,0.799,2.297,1.383c0.611,0.582,1.064,1.273,1.363,2.072
		c0.297,0.801,0.447,1.661,0.447,2.582v16.022h-2.807l-0.16-2.44c-0.598,0.813-1.377,1.491-2.34,2.034
		c-0.961,0.541-2.189,0.812-3.68,0.812c-0.787,0-1.58-0.114-2.377-0.344c-0.801-0.23-1.518-0.597-2.156-1.099
		c-0.639-0.501-1.16-1.146-1.564-1.931c-0.408-0.786-0.611-1.75-0.611-2.889c0-2.385,0.982-4.269,2.949-5.65
		c1.965-1.383,5.129-2.115,9.494-2.195v-1.83C151.521,127.955,151.201,126.877,150.566,126.021z M134.687,122.585l-0.812,3.051
		c-0.244-0.054-0.496-0.102-0.754-0.143c-0.256-0.041-0.547-0.062-0.873-0.062c-0.541,0-1.021,0.116-1.443,0.346
		s-0.801,0.55-1.139,0.955c-0.34,0.406-0.645,0.875-0.916,1.403c-0.27,0.528-0.514,1.077-0.73,1.647v15.004h-3.254V122.83h2.969
		l0.121,3.09c0.541-1.22,1.232-2.128,2.072-2.725c0.842-0.596,1.777-0.895,2.807-0.895c0.381,0,0.707,0.014,0.977,0.04
		C133.982,122.368,134.308,122.45,134.687,122.585z M101.81,140.436c-0.285-0.514-0.428-1.084-0.428-1.707
		c0-0.785,0.195-1.437,0.59-1.951c0.393-0.517,0.9-0.922,1.523-1.221c-0.867-0.596-1.592-1.375-2.174-2.339
		c-0.584-0.961-0.875-2.134-0.875-3.517c0-1.247,0.236-2.338,0.711-3.273c0.473-0.935,1.104-1.714,1.891-2.338
		c0.785-0.624,1.674-1.091,2.664-1.402c0.988-0.312,1.998-0.468,3.029-0.468l8.254-1.505l0.408,3.133h-4.795
		c1.109,0.461,2.023,1.166,2.744,2.113c0.717,0.949,1.076,2.197,1.076,3.741c0,1.274-0.236,2.373-0.711,3.293
		c-0.475,0.922-1.092,1.682-1.85,2.276c-0.76,0.598-1.613,1.037-2.562,1.322c-0.949,0.284-1.885,0.428-2.807,0.428
		c-0.568,0-1.152-0.055-1.748-0.164c-0.598-0.107-1.18-0.271-1.75-0.487c-0.596,0.515-0.895,1.017-0.895,1.505
		c0,0.243,0.047,0.475,0.143,0.689c0.096,0.218,0.291,0.408,0.59,0.57s0.746,0.305,1.342,0.428c0.596,0.121,1.408,0.209,2.439,0.264
		c1.383,0.082,2.629,0.238,3.742,0.468c1.111,0.229,2.059,0.589,2.846,1.078c0.785,0.487,1.389,1.11,1.809,1.87
		s0.631,1.708,0.631,2.846c0,0.84-0.197,1.661-0.59,2.46c-0.393,0.8-0.977,1.519-1.748,2.156c-0.773,0.637-1.742,1.144-2.908,1.524
		c-1.166,0.379-2.521,0.569-4.066,0.569c-2.764,0-4.879-0.528-6.344-1.587c-1.463-1.056-2.195-2.453-2.195-4.188
		c0-1.221,0.324-2.271,0.977-3.151c0.65-0.881,1.49-1.593,2.52-2.136C102.587,141.384,102.093,140.951,101.81,140.436z
		 M93.373,133.809c0,2.277-0.264,4.147-0.793,5.611c-0.527,1.464-1.213,2.624-2.053,3.477c-0.84,0.854-1.795,1.451-2.867,1.791
		c-1.07,0.336-2.135,0.506-3.191,0.506c-1.031,0-2.08-0.17-3.15-0.506c-1.072-0.34-2.033-0.942-2.887-1.812
		c-0.855-0.867-1.553-2.033-2.096-3.497s-0.812-3.32-0.812-5.57c0-2.248,0.264-4.119,0.793-5.611
		c0.527-1.49,1.219-2.676,2.074-3.557c0.854-0.883,1.814-1.505,2.887-1.871c1.07-0.367,2.135-0.55,3.191-0.55
		c1.029,0,2.074,0.177,3.131,0.529s2.014,0.969,2.867,1.851c0.854,0.881,1.551,2.067,2.094,3.559
		C93.103,129.648,93.373,131.532,93.373,133.809z M67.96,133.363c0,3.849-0.678,6.783-2.033,8.804
		c-1.356,2.019-3.308,3.028-5.856,3.028c-0.948,0-1.803-0.161-2.562-0.486c-0.76-0.325-1.41-0.771-1.952-1.343v8.743h-3.253v-0.002
		V122.83h2.765l0.204,2.604c0.705-1.004,1.551-1.789,2.542-2.358c0.989-0.569,2.095-0.854,3.313-0.854
		c0.977,0,1.885,0.198,2.726,0.59c0.838,0.394,1.565,1.023,2.174,1.891c0.611,0.867,1.084,2.013,1.424,3.437
		C67.791,129.561,67.96,131.303,67.96,133.363z M31.811,122.83l5.937,19.6l5.327-19.6h3.131l-6.222,22.08
		c-0.325,1.191-0.657,2.249-0.997,3.171c-0.338,0.922-0.738,1.694-1.199,2.317c-0.461,0.625-1.017,1.104-1.667,1.445
		c-0.651,0.338-1.451,0.508-2.399,0.508c-0.624,0-1.24-0.096-1.85-0.285c-0.61-0.188-1.104-0.42-1.484-0.691l1.139-2.154
		c0.759,0.407,1.464,0.61,2.115,0.61c0.434,0,0.807-0.082,1.119-0.244c0.311-0.163,0.589-0.44,0.833-0.834
		c0.244-0.392,0.468-0.914,0.671-1.565c0.204-0.649,0.427-1.451,0.671-2.398H35.51l-7.116-21.959H31.811z M68.865,196.566
		c-0.738,2.518-1.799,4.613-3.189,6.287c-1.39,1.676-3.093,2.926-5.112,3.76c-2.019,0.83-4.299,1.246-6.84,1.246
		c-2.209,0-4.216-0.356-6.021-1.068c-1.806-0.713-3.41-1.816-4.811-3.312v17.848H28.395v-52.867h11.827l1.247,5.451
		c1.425-2.16,3.17-3.758,5.236-4.791c2.066-1.034,4.405-1.549,7.019-1.549c2.541-0.002,4.821,0.414,6.84,1.244
		c2.019,0.832,3.722,2.084,5.112,3.758c1.391,1.675,2.451,3.777,3.189,6.306c0.736,2.529,1.104,5.493,1.104,8.89
		C69.968,191.115,69.601,194.048,68.865,196.566z M112.58,206.969h-14.5v-23.189c0-1.615-0.41-2.936-1.229-3.955
		c-0.818-1.021-2.047-1.532-3.688-1.532c-0.902,0-1.727,0.16-2.475,0.479c-0.75,0.32-1.391,0.761-1.924,1.318
		c-0.535,0.559-0.945,1.206-1.23,1.941c-0.285,0.738-0.426,1.509-0.426,2.314v22.622h-14.5v-52.901h14.5v18.382
		c1.543-1.542,3.359-2.741,5.449-3.597s4.287-1.283,6.59-1.283c2.279,0,4.264,0.326,5.951,0.979
		c1.686,0.653,3.082,1.599,4.186,2.832c1.104,1.236,1.928,2.749,2.475,4.542c0.547,1.795,0.82,3.831,0.82,6.11V206.969z
		 M143.363,205.794c-0.879,2.397-1.859,4.608-2.939,6.625c-1.082,2.019-2.381,3.759-3.9,5.22c-1.521,1.461-3.309,2.6-5.361,3.42
		c-2.055,0.818-4.482,1.229-7.287,1.229c-1.758,0-3.365-0.137-4.826-0.409s-2.643-0.575-3.545-0.908v-8.657h5.842
		c1.283,0,2.32-0.189,3.117-0.569c0.795-0.379,1.432-0.845,1.906-1.39c0.475-0.547,0.812-1.129,1.014-1.746s0.352-1.164,0.445-1.639
		l-15.314-38.51h15.604l7.373,25.615h0.5l6.803-25.615h14.287L143.363,205.794z"/>
	<path fill="#111114" d="M54.043,180.324c-0.5-0.643-1.146-1.141-1.941-1.497c-0.796-0.354-1.764-0.533-2.903-0.533
		c-1.139-0.002-2.114,0.211-2.921,0.64c-0.809,0.426-1.473,1.015-1.994,1.762c-0.523,0.748-0.908,1.617-1.158,2.603
		s-0.375,2.048-0.375,3.188v2.386c0,1.142,0.125,2.209,0.375,3.208c0.25,0.998,0.635,1.869,1.158,2.617
		c0.522,0.748,1.188,1.343,1.994,1.781s1.781,0.66,2.921,0.66s2.107-0.179,2.903-0.535c0.795-0.355,1.443-0.867,1.941-1.533
		c0.498-0.663,0.859-1.454,1.086-2.368c0.226-0.914,0.338-1.941,0.338-3.081v-3.885c0-1.139-0.112-2.166-0.338-3.079
		C54.902,181.743,54.541,180.964,54.043,180.324z"/>
</g>
</svg>
